nColumns=19
nRows=79
DataType=double
version=3
OpenSimVersion=4.1
endheader
time	ground_force_calcn_r_vx	ground_force_calcn_r_vy	ground_force_calcn_r_vz	ground_force_calcn_r_px	ground_force_calcn_r_py	ground_force_calcn_r_pz	ground_force_calcn_r_mx	ground_force_calcn_r_my	ground_force_calcn_r_mz	ground_force_calcn_l_vx	ground_force_calcn_l_vy	ground_force_calcn_l_vz	ground_force_calcn_l_px	ground_force_calcn_l_py	ground_force_calcn_l_pz	ground_force_calcn_l_mx	ground_force_calcn_l_my	ground_force_calcn_l_mz
0	-44.7818	424.335	3.13395	0.0818231	0	-0.218164	0.012266	-0.116228	-0.000858412	0	0	0	0	0	0	0	0	0
0.01	-63.4796	472.986	-0.0806353	0.087345	0	-0.217167	0.0349078	-0.260098	4.43418e-05	0	0	0	0	0	0	0	0	0
0.02	-82.8112	525.294	-4.22241	0.0934384	0	-0.215988	0.0650157	-0.412413	0.00331505	0	0	0	0	0	0	0	0	0
0.03	-101.945	579.561	-9.2973	0.0990927	0	-0.214812	0.0989525	-0.562547	0.00902437	0	0	0	0	0	0	0	0	0
0.04	-120.105	633.99	-15.1913	0.104305	0	-0.213668	0.132231	-0.697998	0.016725	0	0	0	0	0	0	0	0	0
0.05	-136.628	687.03	-21.6826	0.109093	0	-0.212586	0.160009	-0.804601	0.0253931	0	0	0	0	0	0	0	0	0
0.06	-150.987	737.624	-28.505	0.11348	0	-0.211585	0.178039	-0.869782	0.0336122	0	0	0	0	0	0	0	0	0
0.07	-162.838	785.167	-35.3739	0.117495	0	-0.210683	0.183645	-0.885495	0.039894	0	0	0	0	0	0	0	0	0
0.08	-171.985	829.265	-41.9612	0.121159	0	-0.20989	0.175741	-0.847375	0.0428776	0	0	0	0	0	0	0	0	0
0.09	-178.329	869.509	-47.9095	0.124494	0	-0.209214	0.154775	-0.754666	0.0415817	0	0	0	0	0	0	0	0	0
0.1	-181.861	905.368	-52.9165	0.127527	0	-0.208652	0.123232	-0.613491	0.035857	0	0	0	0	0	0	0	0	0
0.11	-182.678	936.194	-56.8133	0.130301	0	-0.208188	0.0853943	-0.437631	0.0265578	0	0	0	0	0	0	0	0	0
0.12	-180.976	961.3	-59.573	0.132869	0	-0.207792	0.0460664	-0.244694	0.015164	0	0	0	0	0	0	0	0	0
0.13	-177.04	980.075	-61.2785	0.135288	0	-0.207432	0.00949741	-0.0525769	0.00328733	0	0	0	0	0	0	0	0	0
0.14	-171.209	992.11	-62.0771	0.137625	0	-0.207077	-0.0211628	0.122633	-0.00767324	0	0	0	0	0	0	0	0	0
0.15	-163.842	997.273	-62.1308	0.139935	0	-0.206701	-0.0441212	0.268556	-0.0167312	0	0	0	0	0	0	0	0	0
0.16	-155.293	995.732	-61.5848	0.142272	0	-0.206284	-0.0588444	0.377308	-0.0233361	0	0	0	0	0	0	0	0	0
0.17	-145.886	987.911	-60.5572	0.144676	0	-0.205817	-0.0657853	0.445484	-0.0273074	0	0	0	0	0	0	0	0	0
0.18	-135.913	974.442	-59.1401	0.147177	0	-0.205294	-0.0660683	0.473685	-0.0287485	0	0	0	0	0	0	0	0	0
0.19	-125.624	956.114	-57.41	0.149799	0	-0.204713	-0.061141	0.46534	-0.0279414	0	0	0	0	0	0	0	0	0
0.2	-115.239	933.822	-55.4371	0.152557	0	-0.204079	-0.0524844	0.425299	-0.0252482	0	0	0	0	0	0	0	0	0
0.21	-104.947	908.52	-53.2872	0.155459	0	-0.203395	-0.0414313	0.358668	-0.0210369	0	0	0	0	0	0	0	0	0
0.22	-94.907	881.191	-51.0229	0.158505	0	-0.202669	-0.0291001	0.270188	-0.0156445	0	0	0	0	0	0	0	0	0
0.23	-85.2482	852.812	-48.705	0.161691	0	-0.201906	-0.0163906	0.16397	-0.00936448	0	0	0	0	0	0	0	0	0
0.24	-76.0696	824.324	-46.3929	0.165006	0	-0.201116	-0.00399743	0.0433179	-0.00243793	0	0	0	0	0	0	0	0	0
0.25	-67.4387	796.594	-44.1434	0.16843	0	-0.200311	0.00757819	-0.0895146	0.00496046	0	0	0	0	0	0	0	0	0
0.26	-59.393	770.39	-42.0091	0.171938	0	-0.199501	0.0179995	-0.233472	0.0127312	0	0	0	0	0	0	0	0	0
0.27	-51.9424	746.36	-40.0389	0.175501	0	-0.198696	0.0270476	-0.388647	0.0208492	0	0	0	0	0	0	0	0	0
0.28	-45.072	725.033	-38.2799	0.179086	0	-0.19791	0.0345621	-0.55597	0.0293538	0	0	0	0	0	0	0	0	0
0.29	-38.7438	706.81	-36.7774	0.182661	0	-0.197153	0.0403914	-0.736867	0.0383414	0	0	0	0	0	0	0	0	0
0.3	-32.8981	691.972	-35.5726	0.186195	0	-0.196434	0.0443581	-0.933019	0.0479643	0	0	0	0	0	0	0	0	0
0.31	-27.457	680.696	-34.6993	0.189665	0	-0.195761	0.0462349	-1.14622	0.0584302	0	0	0	0	0	0	0	0	0
0.32	-22.3283	673.071	-34.1823	0.193055	0	-0.195142	0.045719	-1.37817	0.069991	0	0	0	0	0	0	0	0	0
0.33	-17.4087	669.118	-34.0379	0.196361	0	-0.194576	0.0424147	-1.63025	0.0829304	0	0	0	0	0	0	0	0	0
0.34	-12.5873	668.81	-34.2774	0.199586	0	-0.194065	0.035823	-1.90341	0.0975524	0	0	0	0	0	0	0	0	0
0.35	-7.75007	672.092	-34.9098	0.202747	0	-0.193606	0.0253425	-2.19772	0.114154	0	0	0	0	0	0	0	0	0
0.36	-2.78421	678.89	-35.9447	0.205867	0	-0.193192	0.0103016	-2.51191	0.132996	0	0	0	0	0	0	0	0	0
0.37	2.41693	689.124	-37.3921	0.208975	0	-0.192816	-0.0099719	-2.84322	0.154274	0	0	0	0	0	0	0	0	0
0.38	7.95006	702.706	-39.2584	0.212105	0	-0.192471	-0.0360573	-3.18711	0.178056	0	0	0	0	0	0	0	0	0
0.39	13.9	719.538	-41.541	0.215285	0	-0.192153	-0.068336	-3.53744	0.204226	0	0	0	0	0	0	0	0	0
0.4	20.3377	739.496	-44.2226	0.218545	0	-0.191858	-0.106892	-3.88667	0.232427	0	0	0	0	0	0	0	0	0
0.41	27.3163	762.408	-47.2674	0.221898	0	-0.191588	-0.151415	-4.22606	0.262005	0	0	0	0	0	0	0	0	0
0.42	34.8657	788.029	-50.6178	0.225355	0	-0.191348	-0.20114	-4.54613	0.292013	0	0	0	0	0	0	0	0	0
0.43	42.9913	816.015	-54.1923	0.22891	0	-0.191145	-0.254868	-4.83763	0.321271	0	0	0	0	0	0	0	0	0
0.44	51.6762	845.902	-57.8862	0.232549	0	-0.190987	-0.311082	-5.09219	0.348465	0	0	0	0	0	0	0	0	0
0.45	60.8881	877.081	-61.5765	0.236251	0	-0.190884	-0.36812	-5.30269	0.372282	0	0	0	0	0	0	0	0	0
0.46	70.5862	908.803	-65.1302	0.239982	0	-0.190842	-0.424333	-5.46332	0.391534	0	0	0	0	0	0	0	0	0
0.47	80.7255	940.185	-68.4123	0.243708	0	-0.190867	-0.478186	-5.56929	0.405248	0	0	0	0	0	0	0	0	0
0.48	91.2568	970.228	-71.2937	0.24739	0	-0.190964	-0.52828	-5.6166	0.412716	0	0	0	0	0	0	0	0	0
0.49	102.122	997.826	-73.6564	0.250993	0	-0.191132	-0.573356	-5.60222	0.413539	0	0	0	0	0	0	0	0	0
0.5	113.242	1021.79	-75.3969	0.254487	0	-0.191371	-0.612299	-5.52484	0.407671	0	0	0	0	0	0	0	0	0
0.51	124.5	1040.9	-76.4281	0.257847	0	-0.191675	-0.644183	-5.38576	0.39545	0	0	0	0	0	0	0	0	0
0.52	135.727	1053.9	-76.6788	0.261057	0	-0.192043	-0.668333	-5.18948	0.377573	8.90842	23.0604	-3.62968	0.682552	0	-0.346422	0.150064	0.388455	-0.0611425
0.53	146.681	1059.58	-76.093	0.264111	0	-0.192465	-0.684377	-4.94374	0.355031	7.70193	45.9951	-3.17984	0.75029	0	-0.366897	0.0929918	0.555337	-0.0383929
0.54	157.041	1056.82	-74.6274	0.267016	0	-0.192936	-0.69235	-4.65924	0.329012	5.28308	75.0917	-2.43556	0.779476	0	-0.374595	0.0445319	0.632959	-0.0205297
0.55	166.415	1044.65	-72.2535	0.269781	0	-0.193444	-0.692759	-4.34872	0.30078	1.31741	110.784	-1.32732	0.796442	0	-0.378337	0.00823345	0.692372	-0.00829538
0.56	174.357	1022.33	-68.9665	0.272425	0	-0.193985	-0.686506	-4.02529	0.271546	-4.55537	153.195	0.216707	0.808051	0	-0.380462	-0.0224201	0.753975	0.00106656
0.57	180.397	989.443	-64.7957	0.274969	0	-0.194548	-0.6747	-3.70059	0.242341	-12.6947	202.002	2.2675	0.816928	0	-0.381799	-0.0518925	0.825733	0.00926895
0.58	184.075	945.934	-59.8123	0.277437	0	-0.195127	-0.658436	-3.38361	0.213949	-23.3109	256.408	4.89763	0.824307	0	-0.382712	-0.0829553	0.912469	0.017429
0.59	184.981	892.2	-54.1338	0.279853	0	-0.195716	-0.638598	-3.08008	0.186882	-36.1975	315.354	8.17512	0.830814	0	-0.383383	-0.116695	1.01665	0.0263552
0.6	182.803	829.117	-47.9241	0.282246	0	-0.196307	-0.615721	-2.79264	0.161419	-50.7256	377.743	12.1325	0.836758	0	-0.383899	-0.152414	1.13499	0.0364541
0.61	177.362	758.055	-41.3885	0.284642	0	-0.196895	-0.589898	-2.52125	0.137656	-66.1101	442.353	16.723	0.842296	0	-0.384306	-0.187895	1.25724	0.0475295
0.62	168.659	680.854	-34.7623	0.287077	0	-0.197476	-0.560763	-2.26372	0.115579	-81.6188	507.717	21.8019	0.847516	0	-0.384618	-0.219963	1.3683	0.0587561
0.63	156.913	599.728	-28.2944	0.289584	0	-0.198049	-0.527681	-2.01682	0.095151	-96.6006	572.228	27.1576	0.852469	0	-0.384848	-0.245276	1.45293	0.0689551
0.64	142.581	517.135	-22.2235	0.292214	0	-0.198611	-0.490096	-1.77756	0.0763893	-110.454	634.415	32.5824	0.857198	0	-0.385008	-0.261317	1.50093	0.0770848
0.65	126.339	435.599	-16.7482	0.295023	0	-0.199166	-0.44791	-1.54433	0.0593774	-122.711	693.125	37.925	0.861738	0	-0.385117	-0.267256	1.50958	0.0825979
0.66	109.02	357.507	-11.9988	0.298099	0	-0.199723	-0.401856	-1.31779	0.0442285	-133.083	747.471	43.0701	0.866128	0	-0.385194	-0.263653	1.48082	0.0853267
0.67	91.4961	284.905	-8.02493	0.301581	0	-0.2003	-0.353604	-1.10107	0.0310138	-141.412	796.752	47.9059	0.870405	0	-0.385255	-0.251583	1.41748	0.0852283
0.68	74.5483	219.361	-4.80721	0.305709	0	-0.200932	-0.305531	-0.899035	0.019702	-147.631	840.425	52.315	0.874604	0	-0.385313	-0.232498	1.32355	0.0823888
0.69	58.7875	161.904	-2.28404	0.310945	0	-0.20168	-0.260436	-0.717254	0.0101186	-151.751	878.084	56.1834	0.878755	0	-0.385377	-0.208475	1.20631	0.0771846
0.7	44.6329	113.014	-0.375866	0.318247	0	-0.202676	-0.221613	-0.561141	0.00186626	-153.845	909.445	59.4083	0.882887	0	-0.385453	-0.181983	1.07578	0.070274
0.71	32.3255	72.6677	1.0028	0.329932	0	-0.204274	-0.194232	-0.436633	-0.00602542	-154.039	934.305	61.9069	0.887025	0	-0.385545	-0.155563	0.943546	0.0625191
0.72	21.9545	40.4319	1.93826	0.353454	0	-0.207877	-0.192235	-0.354024	-0.0169715	-152.507	952.55	63.6358	0.891199	0	-0.385656	-0.131571	0.821788	0.0549002
0.73	0	0	0	0	0	0	0	0	0	-149.457	964.187	64.6053	0.895433	0	-0.385788	-0.111797	0.721229	0.0483259
0.74	0	0	0	0	0	0	0	0	0	-145.127	969.383	64.8719	0.899757	0	-0.385946	-0.097182	0.649133	0.0434405
0.75	0	0	0	0	0	0	0	0	0	-139.766	968.466	64.5195	0.9042	0	-0.386131	-0.0878679	0.608856	0.0405622
0.76	0	0	0	0	0	0	0	0	0	-133.628	961.928	63.6394	0.908786	0	-0.386344	-0.0834328	0.600594	0.0397342
0.77	0	0	0	0	0	0	0	0	0	-126.961	950.419	62.3178	0.913538	0	-0.386582	-0.0831631	0.62255	0.0408198
0.78	0	0	0	0	0	0	0	0	0	-119.987	934.749	60.6325	0.918473	0	-0.386842	-0.0862841	0.672187	0.0436014
